Coordinates
version=1
nRows=4
nColumns=55
inDegrees=yes

Units are S.I. units (second, meters, Newtons, ...)
If the header above contains a line with 'inDegrees', this indicates whether rotational values are in degrees (yes) or radians (no).

endheader
time	pelvis_tilt	pelvis_list	pelvis_rotation	pelvis_tx	pelvis_ty	pelvis_tz	hip_flexion_r	hip_adduction_r	hip_rotation_r	hip_flexion_l	hip_adduction_l	hip_rotation_l	flex_extension	lat_bending	axial_rotation	L4_L5_IVDjnt_r3	L4_L5_IVD_bendjnt_r1	L4_L5_IVD_rotjnt_r2	L3_L4_IVDjnt_r3	L3_L4_IVD_bendjnt_r1	L3_L4_IVD_rotjnt_r2	L2_L3_IVDjnt_r3	L2_L3_IVD_bendjnt_r1	L2_L3_IVD_rotjnt_r2	L1_L2_IVDjnt_r3	L1_L2_IVD_bendjnt_r1	L1_L2_IVD_rotjnt_r2	Torso_Rot	Abs_r3	Abs_t1	Abs_t2	LB_wrapjnt_r3	LB_wrapjnt_t1	LB_wrapjnt_t2	SC_y	SC_x	SC_z	SC_y_l	SC_x_l	SC_z_l	arm_flex_r	arm_add_r	arm_rot_r	elbow_flex_r	pro_sup_r	wrist_flex_r	wrist_dev_r	arm_flex_l	arm_add_l	arm_rot_l	elbow_flex_l	pro_sup_l	wrist_flex_l	wrist_dev_l
      0.00000000	     17.45210000	     -9.31340000	    -71.89709997	      0.16050000	      0.65800000	     -0.43250000	     44.08539999	     -9.14290000	     -3.60390000	     50.31379999	    -19.49080000	     29.94759999	     -0.00000000	      0.00000000	      0.00000000	     -0.00000000	      0.00000000	      0.00000000	     -0.00000000	      0.00000000	      0.00000000	     -0.00000000	      0.00000000	      0.00000000	     -0.00000000	      0.00000000	      0.00000000	      0.00000000	     -0.00000001	      0.00000000	      0.00000000	     -0.00000001	     -0.00000000	     -0.00000000	      0.00000000	     -0.00000003	      0.00088358	      0.00000000	     -0.00000003	     -0.00088358	     -2.98020000	    -31.76280000	    -14.80960000	     73.20489997	     89.99945436	    -33.88929999	     17.44269998	     21.01130000	    -16.67070000	     -3.95180000	      4.20220012	      7.39100005	     -9.48580000	    -24.99945385
      0.01600000	     17.56940000	     -9.29810000	    -71.94359997	      0.16080000	      0.67840000	     -0.43220000	     43.97970000	     -9.13790000	     -3.49360000	     50.10230000	    -19.54070000	     29.91110000	     -0.00000000	      0.00000000	      0.00000000	     -0.00000002	      0.00000000	      0.00000000	     -0.00000002	      0.00000000	      0.00000000	     -0.00000003	      0.00000000	      0.00000000	     -0.00000000	      0.00000000	      0.00000000	      0.00000000	     -0.00000007	      0.00000000	      0.00000000	     -0.00000007	     -0.00000000	     -0.00000000	      0.00000000	     -0.00000005	      0.00088355	      0.00000000	     -0.00000005	     -0.00088355	     -2.98330000	    -31.76800000	    -14.81050000	     73.11300000	     89.99945434	    -33.89189999	     17.39539998	     21.00020000	    -16.65300000	     -4.07100000	      4.19090014	      7.43230007	     -9.44510000	    -24.99945382
      0.03300000	     17.68670000	     -9.28260000	    -71.99009997	      0.16110000	      0.68880000	     -0.43180000	     43.87420000	     -9.13300000	     -3.38320000	     49.89070000	    -19.59050000	     29.87430000	     -0.00000000	      0.00000000	      0.00000000	     -0.00000002	      0.00000000	      0.00000000	     -0.00000002	      0.00000000	      0.00000000	     -0.00000003	      0.00000000	      0.00000000	     -0.00000000	      0.00000000	      0.00000000	      0.00000000	     -0.00000007	      0.00000000	      0.00000000	     -0.00000007	     -0.00000000	     -0.00000000	      0.00000000	     -0.00000005	      0.00088355	      0.00000000	     -0.00000005	     -0.00088355	     -2.98630000	    -31.77330000	    -14.81140000	     73.02110000	     89.99945434	    -33.89449999	     17.34819998	     20.98900000	    -16.63520000	     -4.19030000	      4.17970014	      7.47350007	     -9.40440000	    -24.99945382
      0.05000000	     17.79460000	     -9.26670000	    -72.03069997	      0.16130000	      0.68920000	     -0.43150000	     43.77290000	     -9.12710000	     -3.28350000	     49.69840000	    -19.63410000	     29.84600000	     -0.00000000	      0.00000000	      0.00000000	     -0.00000002	      0.00000000	      0.00000000	     -0.00000003	      0.00000000	      0.00000000	     -0.00000004	      0.00000000	      0.00000000	     -0.00000000	      0.00000000	      0.00000000	      0.00000000	     -0.00000010	      0.00000000	      0.00000000	     -0.00000010	     -0.00000000	     -0.00000000	      0.00000000	     -0.00000005	      0.00100755	      0.00000000	     -0.00000005	     -0.00100755	     -2.98760000	    -31.77520000	    -14.81750000	     72.92850000	     89.99880546	    -33.88989999	     17.31069998	     20.97440000	    -16.62010000	     -4.29700000	      4.16250014	      7.50430007	     -9.38020000	    -24.99910935
